HIERARCHY
ROOT hip
{
	OFFSET 0.000000 0.000000 0.000000
	CHANNELS 6 Xposition Yposition Zposition Xrotation Zrotation Yrotation 
	JOINT abdomen
	{
		OFFSET 0.000000 3.422050 0.000000
		CHANNELS 3 Xrotation Zrotation Yrotation 
		JOINT chest
		{
			OFFSET 0.000000 8.486693 -0.684411
			CHANNELS 3 Xrotation Zrotation Yrotation 
			JOINT neck
			{
				OFFSET 0.000000 10.266162 -0.273764
				CHANNELS 3 Xrotation Zrotation Yrotation 
				JOINT head
				{
					OFFSET 0.000000 3.148285 0.000000
					CHANNELS 3 Xrotation Zrotation Yrotation 
					End Site
					{
						OFFSET 0.000000 3.148289 0.000000
					}
				}
			}
			JOINT lCollar
			{
				OFFSET 3.422053 6.707223 -0.821293
				CHANNELS 3 Yrotation Zrotation Xrotation 
				JOINT lShldr
				{
					OFFSET 3.285171 0.000000 0.000000
					CHANNELS 3 Zrotation Yrotation Xrotation 
					JOINT lForeArm
					{
						OFFSET 10.129278 0.000000 0.000000
						CHANNELS 3 Yrotation Zrotation Xrotation 
						JOINT lHand
						{
							OFFSET 8.486692 0.000000 0.000000
							CHANNELS 3 Zrotation Yrotation Xrotation 
							End Site
							{
								OFFSET 4.106464 0.000000 0.000000
							}
						}
					}
				}
			}
			JOINT rCollar
			{
				OFFSET -3.558935 6.707223 -0.821293
				CHANNELS 3 Yrotation Zrotation Xrotation 
				JOINT rShldr
				{
					OFFSET -3.148289 0.000000 0.000000
					CHANNELS 3 Zrotation Yrotation Xrotation 
					JOINT rForeArm
					{
						OFFSET -10.266159 0.000000 0.000000
						CHANNELS 3 Yrotation Zrotation Xrotation 
						JOINT rHand
						{
							OFFSET -8.349810 0.000000 0.000000
							CHANNELS 3 Zrotation Yrotation Xrotation 
							End Site
							{
								OFFSET -4.106464 0.000000 0.000000
							}
						}
					}
				}
			}
		}
	}
	JOINT lThigh
	{
		OFFSET 5.338403 -1.642589 1.368821
		CHANNELS 3 Xrotation Zrotation Yrotation 
		JOINT lShin
		{
			OFFSET -2.053232 -20.121670 0.000000
			CHANNELS 3 Xrotation Zrotation Yrotation 
			JOINT lFoot
			{
				OFFSET 0.000000 -19.300380 -1.231939
				CHANNELS 3 Xrotation Yrotation Zrotation 
				End Site
				{
					OFFSET 0.000000 -2.463878 4.653993
				}
			}
		}
	}
	JOINT rThigh
	{
		OFFSET -5.338403 -1.642589 1.368821
		CHANNELS 3 Xrotation Zrotation Yrotation 
		JOINT rShin
		{
			OFFSET 2.053232 -20.121670 0.000000
			CHANNELS 3 Xrotation Zrotation Yrotation 
			JOINT rFoot
			{
				OFFSET 0.000000 -19.300380 -1.231939
				CHANNELS 3 Xrotation Yrotation Zrotation 
				End Site
				{
					OFFSET 0.000000 -2.463878 4.653993
				}
			}
		}
	}
}
MOTION
Frames: 13
Frame Time: 0.033264
0.000000 43.528500 0.000000 0.000000 0.000000 0.000000 0.000000 0.000000 0.000000 0.000000 0.000000 0.000000 0.000000 0.000000 0.000000 0.000000 0.000000 0.000000 0.000000 0.000000 0.000000 0.000000 0.000000 0.000000 0.000000 0.000000 0.000000 0.000000 0.000000 0.000000 0.000000 0.000000 0.000000 0.000000 0.000000 0.000000 0.000000 0.000000 0.000000 0.000000 0.000000 0.000000 0.000000 0.000000 0.000000 0.000000 0.000000 0.000000 0.000000 0.000000 0.000000 0.000000 0.000000 0.000000 0.000000 0.000000 0.000000 0.000000 0.000000 0.000000 
19.995884 15.632790 1.865312 -64.013908 0.000000 0.000000 -45.431534 -0.079859 -0.059451 7.255421 -9.214186 -0.657504 6.794086 -18.762899 1.029778 -16.339989 -1.202526 1.209644 17.691967 17.866982 2.039124 7.838801 9.510272 53.931816 -8.042770 0.370275 40.990078 11.603764 -16.802290 0.883201 -12.826137 -15.169721 2.327312 -2.958452 -4.276712 53.281712 0.335735 -0.074315 40.963383 -4.846736 21.375290 6.768213 33.395008 45.525925 57.118935 130.635773 46.511478 -25.359262 47.892601 2.207179 -26.485189 29.416723 -39.912003 -60.840130 140.998199 -40.735012 17.559813 58.748329 -34.638920 34.622711 
19.995884 15.579722 1.865312 -64.013908 0.000000 0.000000 -45.431534 -0.079859 -0.059451 8.306743 -9.214149 -0.657440 6.349877 -18.762831 1.029832 -17.005722 -1.202604 1.209720 17.950481 17.566917 1.962998 7.838801 9.510272 53.931816 -8.042770 0.370275 40.990078 11.887975 -16.547770 0.045714 -13.272465 -14.849113 2.226766 -2.958452 -4.276712 53.281715 0.335735 -0.074315 40.963383 -5.189823 21.260717 5.926504 33.380177 45.777576 57.165131 130.635773 46.511478 -25.359262 47.960648 2.209623 -26.209190 29.435759 -40.171665 -60.889217 140.998199 -40.735012 17.559813 58.646858 -34.723446 34.285286 
19.995884 15.526655 1.865312 -64.013908 0.000000 0.000000 -45.431534 -0.079859 -0.059451 9.359493 -9.214114 -0.657375 5.905560 -18.762756 1.029886 -17.671814 -1.202680 1.209797 18.208189 17.266464 1.888401 7.838801 9.510272 53.931816 -8.042770 0.370275 40.990086 12.168148 -16.289080 -0.790069 -13.717707 -14.527638 2.128915 -2.958452 -4.276712 53.281719 0.335735 -0.074315 40.963387 -5.531058 21.141371 5.085562 33.365574 46.029255 57.211452 130.635773 46.511486 -25.359266 48.028694 2.212394 -25.933170 29.455164 -40.431343 -60.938629 140.998215 -40.735020 17.559816 58.544659 -34.807476 33.947289 
19.995884 15.473588 1.865312 -64.013908 0.000000 0.000000 -45.431534 -0.079859 -0.059451 10.413492 -9.214079 -0.657309 5.461152 -18.762688 1.029939 -18.338221 -1.202755 1.209875 18.465118 16.965654 1.815327 7.838801 9.510273 53.931820 -8.042770 0.370275 40.990082 12.444207 -16.026302 -1.624059 -14.161884 -14.205344 2.033756 -2.958452 -4.276712 53.281719 0.335735 -0.074315 40.963387 -5.870330 21.017288 4.245521 33.351200 46.280975 57.257904 130.635773 46.511478 -25.359262 48.096718 2.215493 -25.657116 29.474934 -40.691017 -60.988323 140.998199 -40.735012 17.559813 58.441757 -34.891033 33.608742 
19.995884 15.420521 1.865312 -64.013908 0.000000 0.000000 -45.431534 -0.079859 -0.059451 11.468567 -9.214044 -0.657243 5.016663 -18.762617 1.029991 -19.004904 -1.202830 1.209954 18.721272 16.664490 1.743768 7.838800 9.510271 53.931816 -8.042769 0.370276 40.990078 12.716071 -15.759518 -2.456169 -14.604997 -13.882259 1.941283 -2.958452 -4.276711 53.281712 0.335735 -0.074315 40.963383 -6.207525 20.888506 3.406506 33.337048 46.532703 57.304462 130.635773 46.511475 -25.359261 48.164738 2.218921 -25.381050 29.495092 -40.950706 -61.038368 140.998199 -40.735004 17.559811 58.338127 -34.974075 33.269630 
19.995884 15.367455 1.865312 -64.013908 0.000000 0.000000 -45.431534 -0.079859 -0.059451 12.524541 -9.214013 -0.657176 4.572108 -18.762550 1.030044 -19.671814 -1.202904 1.210034 18.976665 16.362988 1.673717 7.838799 9.510272 53.931812 -8.042770 0.370275 40.990078 12.983678 -15.488825 -3.286318 -15.047062 -13.558421 1.851491 -2.958452 -4.276712 53.281708 0.335735 -0.074315 40.963379 -6.542537 20.755072 2.568642 33.323143 46.784473 57.351185 130.635773 46.511478 -25.359262 48.232746 2.222675 -25.104973 29.515625 -41.210388 -61.088715 140.998199 -40.735012 17.559813 58.233803 -35.056641 32.929981 
19.995884 15.314387 1.865312 -64.013908 0.000000 0.000000 -45.431534 -0.079859 -0.059451 13.581233 -9.213982 -0.657108 4.127498 -18.762478 1.030095 -20.338898 -1.202977 1.210114 19.231306 16.061159 1.605165 7.838801 9.510272 53.931816 -8.042770 0.370275 40.990078 13.246958 -15.214314 -4.114425 -15.488086 -13.233860 1.764374 -2.958452 -4.276711 53.281712 0.335735 -0.074315 40.963383 -6.875255 20.617016 1.732052 33.309456 47.036243 57.398003 130.635773 46.511478 -25.359262 48.300735 2.226757 -24.828882 29.536535 -41.470055 -61.139381 140.998199 -40.735012 17.559813 58.128761 -35.138691 32.589775 
19.995884 15.261320 1.865312 -64.013908 0.000000 0.000000 -45.431534 -0.079859 -0.059451 14.638465 -9.213952 -0.657040 3.682850 -18.762405 1.030146 -21.006121 -1.203049 1.210195 19.485212 15.759027 1.538106 7.838801 9.510273 53.931816 -8.042770 0.370275 40.990078 13.505845 -14.936075 -4.940411 -15.928086 -12.908620 1.679927 -2.958452 -4.276712 53.281712 0.335735 -0.074315 40.963383 -7.205574 20.474392 0.896859 33.296013 47.288025 57.444965 130.635773 46.511478 -25.359262 48.368717 2.231168 -24.552788 29.557852 -41.729736 -61.190403 140.998199 -40.735012 17.559813 58.023033 -35.220242 32.249043 
19.995884 15.208253 1.865312 -64.013916 0.000000 0.000000 -45.431534 -0.079859 -0.059451 15.696054 -9.213923 -0.656971 3.238175 -18.762335 1.030196 -21.673435 -1.203120 1.210278 19.738380 15.456594 1.472533 7.838801 9.510273 53.931816 -8.042770 0.370275 40.990082 13.760280 -14.654203 -5.764204 -16.367064 -12.582724 1.598143 -2.958452 -4.276713 53.281715 0.335735 -0.074315 40.963387 -7.533398 20.327257 0.063180 33.282818 47.539837 57.492081 130.635773 46.511478 -25.359262 48.436676 2.235904 -24.276691 29.579561 -41.989395 -61.241745 140.998215 -40.735016 17.559814 57.916584 -35.301273 31.907764 
19.995884 15.155186 1.865312 -64.013908 0.000000 0.000000 -45.431541 -0.079859 -0.059451 16.753828 -9.213896 -0.656902 2.793486 -18.762266 1.030246 -22.340792 -1.203189 1.210361 19.990833 15.153878 1.408437 7.838801 9.510273 53.931816 -8.042770 0.370275 40.990078 14.010202 -14.368793 -6.585730 -16.805037 -12.256214 1.519014 -2.958452 -4.276712 53.281719 0.335735 -0.074315 40.963383 -7.858619 20.175648 -0.768867 33.269852 47.791637 57.539310 130.635773 46.511478 -25.359264 48.504608 2.240969 -24.000601 29.601679 -42.249046 -61.293434 140.998215 -40.735016 17.559813 57.809437 -35.381783 31.565958 
19.995884 15.102118 1.865312 -64.013908 0.000000 0.000000 -45.431526 -0.079859 -0.059451 17.811600 -9.213870 -0.656832 2.348797 -18.762194 1.030295 -23.008152 -1.203259 1.210445 20.242580 14.850896 1.345814 7.838800 9.510271 53.931816 -8.042769 0.370276 40.990078 14.255569 -14.079953 -7.404923 -17.242010 -11.929125 1.442536 -2.958452 -4.276711 53.281712 0.335735 -0.074315 40.963383 -8.181147 20.019634 -1.599168 33.257149 48.043465 57.586720 130.635773 46.511475 -25.359261 48.572521 2.246360 -23.724514 29.624201 -42.508686 -61.345474 140.998199 -40.735008 17.559813 57.701588 -35.461773 31.223619 
19.995884 15.049051 1.865312 -64.013908 0.000000 0.000000 -45.431534 -0.079859 -0.059451 18.869194 -9.213845 -0.656762 1.904123 -18.762119 1.030344 -23.675468 -1.203327 1.210529 20.493633 14.547659 1.284655 7.838800 9.510272 53.931812 -8.042770 0.370275 40.990078 14.496324 -13.787781 -8.221716 -17.678001 -11.601491 1.368701 -2.958452 -4.276711 53.281712 0.335735 -0.074315 40.963383 -8.500879 19.859264 -2.427610 33.244698 48.295288 57.634262 130.635773 46.511475 -25.359262 48.640392 2.252078 -23.448427 29.647142 -42.768311 -61.397884 140.998199 -40.735012 17.559811 57.593071 -35.541237 30.880775 
